<svg xmlns="http://www.w3.org/2000/svg" viewBox="0 0 1200 1200">
  <title>icons_wwflapig</title>
  <g id="apply">
    <g>
      <path d="M830.06,398,528,700,369.94,542a48,48,0,0,0-67.88,67.88l192,192a48,48,0,0,0,67.88,0l336-336A48,48,0,0,0,830.06,398Z"/>
      <path d="M1064.38,403.73A505.57,505.57,0,1,0,1104,599.92,502.28,502.28,0,0,0,1064.38,403.73ZM1020.17,777.4A457.58,457.58,0,1,1,1056,599.92,454.5,454.5,0,0,1,1020.17,777.4Z"/>
    </g>
  </g>
  <g id="back">
    <path d="M984,575.92H284.48L569.28,280.58a24,24,0,1,0-34.55-33.32L194.66,599.92,534.72,952.58a24,24,0,1,0,34.55-33.32L284.48,623.92H984a24,24,0,0,0,0-48Z"/>
  </g>
  <g id="x">
    <path d="M667.88,599.92l374.06-374.06A48,48,0,0,0,974.06,158L600,532,225.94,158a48,48,0,0,0-67.88,67.88L532.12,599.92,158.06,974a48,48,0,0,0,67.88,67.88L600,667.8l374.06,374.06A48,48,0,0,0,1041.94,974Z"/>
  </g>
  <g id="trash25">
    <g>
      <path d="M216,288.45H984a24,24,0,1,0,0-48H720.22V204.22A60.29,60.29,0,0,0,660,144H540a60.29,60.29,0,0,0-60.22,60.22v36.22H216a24,24,0,0,0,0,48Zm311.78-84.22A12.24,12.24,0,0,1,540,192H660a12.24,12.24,0,0,1,12.22,12.22v36.22H527.78Z"/>
      <path d="M432,456.22V792.51a24,24,0,0,0,48,0V456.22a24,24,0,0,0-48,0Z"/>
      <path d="M720,456.22V792.51a24,24,0,0,0,48,0V456.22a24,24,0,1,0-48,0Z"/>
      <path d="M576,456.22V792.51a24,24,0,0,0,48,0V456.22a24,24,0,1,0-48,0Z"/>
      <path d="M984,336.45H888a24,24,0,0,0-24,24V852.51c0,59.4-54.89,107.72-122.37,107.72h-283c-67.47,0-122.37-48.32-122.37-107.72V360.45a24,24,0,0,0-24-24H216a24,24,0,0,0,0,48h72.27V852.51c0,42.08,18,81.49,50.82,111,32.06,28.85,74.52,44.74,119.55,44.74h283c45,0,87.49-15.89,119.55-44.74C893.95,934,912,894.58,912,852.51V384.45h72a24,24,0,0,0,0-48Z"/>
    </g>
  </g>
  <g id="lupa">
    <g>
      <path d="M696.34,366.09A330.25,330.25,0,0,0,62,237.56,330.25,330.25,0,0,0,670.38,494.62,328.14,328.14,0,0,0,696.34,366.09ZM548.73,548.64a258.17,258.17,0,1,1,75.62-182.55A256.48,256.48,0,0,1,548.73,548.64Z"/>
      <path d="M1075.88,940,781.71,645.86A96,96,0,1,0,645.95,781.63L940.12,1075.8A96,96,0,1,0,1075.88,940Z"/>
    </g>
  </g>
  <g id="help">
    <path d="M600,1146A546.14,546.14,0,0,1,387.47,96.91,546.14,546.14,0,0,1,812.53,1103.08,542.59,542.59,0,0,1,600,1146ZM600,90a510.14,510.14,0,0,0-198.51,979.93,510.14,510.14,0,0,0,397-939.86A506.79,506.79,0,0,0,600,90Z"/>
    <path d="M600,906a306,306,0,1,1,216.37-89.63A304,304,0,0,1,600,906Zm0-576a270,270,0,1,0,190.92,79.08A268.23,268.23,0,0,0,600,330Z"/>
    <rect x="528" y="24" width="144" height="336" rx="38.41" ry="38.41"/>
    <rect x="528" y="840" width="144" height="336" rx="38.41" ry="38.41"/>
    <rect x="936" y="432" width="144" height="336" rx="38.41" ry="38.41" transform="translate(1608 -408) rotate(90)"/>
    <rect x="120" y="432" width="144" height="336" rx="38.41" ry="38.41" transform="translate(792 408) rotate(90)"/>
    <path d="M96,462a18,18,0,0,1-18-18V244.49C78,152.69,152.69,78,244.49,78H432a18,18,0,1,1,0,36H244.49A130.64,130.64,0,0,0,114,244.49V444A18,18,0,0,1,96,462Z"/>
    <path d="M432,1122H244.49C152.69,1122,78,1047.31,78,955.51V768a18,18,0,0,1,36,0V955.51A130.64,130.64,0,0,0,244.49,1086H432a18,18,0,1,1,0,36Z"/>
    <path d="M955.51,1122H768a18,18,0,0,1,0-36H955.51A130.64,130.64,0,0,0,1086,955.51V756a18,18,0,0,1,36,0V955.51C1122,1047.31,1047.31,1122,955.51,1122Z"/>
    <path d="M1104,450a18,18,0,0,1-18-18V244.49A130.64,130.64,0,0,0,955.51,114H756a18,18,0,0,1,0-36H955.51c91.8,0,166.49,74.69,166.49,166.49V432A18,18,0,0,1,1104,450Z"/>
  </g>
  <g id="info">
    <path d="M613.26,772.34c-1.82,7.66-2.75,13.41-2.75,17.23,0,5.72,2.75,8.6,8.21,8.6,3.68,0,8.08-1.11,13.24-3.33a136.18,136.18,0,0,0,15-7.66c4.87-2.88,9.44-5.41,13.71-7.66s7.62-3.33,10-3.33q7.3,0,11.42,8.11a48,48,0,0,1,5,15.77Q672.56,810.62,653,823T612.83,846a363.13,363.13,0,0,1-40.2,17.68Q553,870.8,538.37,870.8c-10.35,0-19-2.25-26-6.69s-10.51-12.1-10.51-22.94a63.77,63.77,0,0,1,.91-11c.61-3.5,1.23-6.52,1.84-9.08L563,529.59q2.73-14.35-4.57-14.33-2.73,0-8.23,2.37t-12.32,5.27c-4.57,1.91-9.14,3.67-13.69,5.25a36.12,36.12,0,0,1-11.42,2.39q-8.22,0-12.32-8.6a81.1,81.1,0,0,1-5.94-16.25q17.33-9.54,41.56-22t47.48-22.48q23.27-10,42.45-17.19t27.37-7.17a26.32,26.32,0,0,1,13.71,3.83c4.24,2.55,6.39,7,6.39,13.38,0,1.91-.17,4.45-.46,7.64s-.76,6.38-1.36,9.57Zm21.92-374.43q-24.69,0-39.27-12.89t-14.6-34.88q0-29.63,21.9-50.67t52.05-21q26.47,0,38.34,16.72t11.85,33.93q0,30.59-20.53,49.7T635.18,397.91Z"/>
    <path d="M600,1152A552.14,552.14,0,0,1,385.13,91.39,552.14,552.14,0,0,1,814.88,1108.61,548.57,548.57,0,0,1,600,1152ZM600,96a504.14,504.14,0,0,0-196.17,968.4A504.14,504.14,0,0,0,796.18,135.6,500.82,500.82,0,0,0,600,96Z"/>
  </g>
  <g id="share">
    <path d="M912,815.92A143.53,143.53,0,0,0,810.68,857.6L428.85,630a144.73,144.73,0,0,0-4.62-76.81L807.76,339.27a143.57,143.57,0,1,0-35.1-62.87L384.39,492.94a144,144,0,1,0,12.15,201.6L773.78,919.43A144,144,0,1,0,912,815.92Z"/>
  </g>
  <g id="zoomIn">
    <g>
      <path d="M964.32,235.69A313,313,0,1,0,1056,457,311,311,0,0,0,964.32,235.69ZM930.38,644.44A265,265,0,1,1,1008,457,263.3,263.3,0,0,1,930.38,644.44Z"/>
      <path d="M398.62,666.36l-307,300a75,75,0,0,0,104.83,107.29l307-300A75,75,0,0,0,398.62,666.36Z"/>
      <path d="M888,432H768V312a24,24,0,1,0-48,0V432H600a24,24,0,1,0,0,48H720V600a24,24,0,0,0,48,0V480H888a24,24,0,0,0,0-48Z"/>
    </g>
  </g>
  <g id="zoomOut">
    <g>
      <path d="M964.32,235.69A313,313,0,1,0,1056,457,311,311,0,0,0,964.32,235.69ZM930.38,644.44A265,265,0,1,1,1008,457,263.3,263.3,0,0,1,930.38,644.44Z"/>
      <path d="M398.62,666.36l-307,300a75,75,0,1,0,104.83,107.29l307-300A75,75,0,0,0,398.62,666.36Z"/>
      <path d="M888,432H600a24,24,0,1,0,0,48H888a24,24,0,0,0,0-48Z"/>
    </g>
  </g>
  <g id="home">
    <path d="M1098.2,578.64,618.44,168.12a28,28,0,0,0-36.4,0L101.81,578.63A28,28,0,0,0,120,627.92H236v368a28,28,0,0,0,28,28H504a28,28,0,0,0,28-28V771.83H668V995.92a28,28,0,0,0,28,28H936a28,28,0,0,0,28-28v-368h116a28,28,0,0,0,18.2-49.27ZM936,571.92a28,28,0,0,0-28,28v368H724V743.83a28,28,0,0,0-28-28H504a28,28,0,0,0-28,28V967.92H292v-368a28,28,0,0,0-28-28H195.85L600.23,226.24l404,345.68Z"/>
  </g>
  <g id="about">
    <g>
      <polygon points="650 885.92 650 565.92 650 465.92 550 465.92 358 465.92 358 565.92 550 565.92 550 885.92 358 885.92 358 985.92 842 985.92 842 885.92 650 885.92"/>
      <rect x="540" y="203.92" width="120" height="120" rx="36" ry="36"/>
    </g>
  </g>
  <g id="brasil">
    <path d="M1134.34,359.87l-32.56-7.58-45.85-57.9a28,28,0,0,0-13.08-9.18l-88.41-29.52-.3-.1-139.92-45V150.09a28,28,0,0,0-7.63-19.21L738.47,58.64a28,28,0,0,0-41.76,1.15l-34.15,40.44-36-13.1a28,28,0,0,0-17-.7l-86.81,23.72V61.4a28,28,0,0,0-33.1-27.53L367.27,56.55a28,28,0,0,0-21.91,34.91L356,130.29,347.51,136l-34.86-25.82A28,28,0,0,0,289,105.61l-70.68,18.2a28,28,0,0,0-21,29l9.14,134.67-24.65,4.83a28,28,0,0,0-16.44,9.94l-64.94,80.86a28,28,0,0,0-3.7,29l32.8,72.91A28,28,0,0,0,163,500.45l26.46-7.73,9.21,24a28,28,0,0,0,26.43,18l55.14-.56a28,28,0,0,0,15.2-4.67l33.66-22.34,10.64,35a28,28,0,0,0,18.16,18.5L460,593.76l8.39,45.75a28,28,0,0,0,10.69,17.31l54,40.74-11.62,92.89a28,28,0,0,0,2.55,15.61l54.45,113.18-78.65,90.14a28,28,0,0,0,1.78,38.67l127,121.09a28,28,0,0,0,19.32,7.73c.75,0,1.51,0,2.26-.09a28,28,0,0,0,20.07-11l108-142.82a28,28,0,0,0,4.67-9.5l20.53-75,113-51.14a28,28,0,0,0,9.53-7.07l76.17-87.07a28,28,0,0,0,5.55-9.77l58.71-180.47,81.33-81.7a28,28,0,0,0,8.16-19.75V387.14A28,28,0,0,0,1134.34,359.87ZM1100,489.93l-77.89,78.24a28,28,0,0,0-6.78,11.09l-59,181.37-68.4,78.18L768.46,892.88A28,28,0,0,0,753,911l-22.58,82.48L644.6,1107,559.69,1026l73.17-83.87A28,28,0,0,0,637,911.59L578.11,789.21l12.61-100.78a28,28,0,0,0-10.93-25.83l-58.26-43.92-9.44-51.46a28,28,0,0,0-18.91-21.59L389,511.89l-17.33-57a28,28,0,0,0-42.27-15.19l-58.09,38.56-27.38.28-11.48-30a28,28,0,0,0-34-16.85l-27.83,8.13-15.76-35,47.8-59.51,38.83-7.62a28,28,0,0,0,22.55-29.37l-9.24-136.09,35.23-9.07,40.1,29.7a28,28,0,0,0,32.4.65L404,165.36a28,28,0,0,0,11.27-30.54l-7.86-28.75,59.42-11v51.75a28,28,0,0,0,35.38,27l113.6-31,46,16.75a28,28,0,0,0,31-8.24l26.52-31.41,39,41.32V231a28,28,0,0,0,19.43,26.66l159.2,51.17,80.35,26.83,46.75,59a28,28,0,0,0,15.61,9.89l20.44,4.75Z"/>
  </g>
  <g id="report">
    <g>
      <polygon points="908.63 336.45 908.63 1048.88 289.64 1048.88 289.64 151.12 724 151.12 724 95.12 233.64 95.12 233.64 1104.88 964.63 1104.88 964.63 336.45 908.63 336.45"/>
      <rect x="380" y="331.92" width="440" height="56"/>
      <rect x="380" y="451.92" width="440" height="56"/>
      <rect x="380" y="571.92" width="440" height="56"/>
      <rect x="380" y="691.92" width="440" height="56"/>
      <rect x="380" y="811.92" width="296" height="56"/>
    </g>
  </g>
  <g id="star">
    <path d="M1181.74,462.35a24,24,0,0,0-13.24-41l-369.07-53a14.82,14.82,0,0,1-11.19-7.94l-165-330.63a24,24,0,0,0-21.47-13.28h0a24,24,0,0,0-21.47,13.28L415.2,360.37a14.73,14.73,0,0,1-11.13,7.92L35,421.31a24,24,0,0,0-13.24,41l267,257.35a14.21,14.21,0,0,1,4.2,12.61l-63.05,363.4a24,24,0,0,0,34.72,25.4L594.77,949.51a15.31,15.31,0,0,1,14,0l330.1,171.58a24,24,0,0,0,34.72-25.4L910.49,732.28a14.13,14.13,0,0,1,4.18-12.56ZM863.21,740.51,918,1056.16,630.9,906.94a63.3,63.3,0,0,0-58.28,0l-287.1,149.23,54.77-315.67a62.2,62.2,0,0,0-18.16-55.33L90.42,461.85l320.49-46a62.73,62.73,0,0,0,47.25-34L601.74,94.18,745.29,381.8a62.84,62.84,0,0,0,47.3,34l320.49,46L881.34,685.19A62.08,62.08,0,0,0,863.21,740.51Z"/>
  </g>
  <g id="tech">
    <path d="M575.13,1196.64a24,24,0,0,1-22.2-14.86L443.73,916.49a6.05,6.05,0,0,0-3.87-3.53l-.1,0a5.8,5.8,0,0,0-1.67-.23,5.94,5.94,0,0,0-3.44,1.07l-88.48,61.9A24,24,0,0,1,315.44,973L227.52,885a24,24,0,0,1-2.73-30.68l62.29-89.53a6.18,6.18,0,0,0,.83-5.26,6.07,6.07,0,0,0-3.54-3.88L18.9,647.38a24,24,0,0,1-5-41.66L206.23,466.36A24,24,0,0,1,223,461.94l179.19,20.34a6.24,6.24,0,0,0,6-3c41.07-70.91,87.63-132,142.32-186.66C642.55,200.57,761,126.44,902.55,72.32,1018.62,27.94,1121.46,8.47,1172.44.81a24,24,0,0,1,27.3,27.31c-7.7,51-27.23,153.94-71.59,269.94-54.14,141.57-128.23,260-220.22,352-53.43,53.43-116.27,101.27-186.76,142.19a6.07,6.07,0,0,0-3,5.93l20.35,179.26a24,24,0,0,1-4.41,16.79l-139.51,192.5A24,24,0,0,1,575.13,1196.64ZM453.36,866.89a53.7,53.7,0,0,1,34.77,31.37l92.81,225.46L689.74,973.6l-19.29-170a54,54,0,0,1,26.63-52.91C764,711.9,823.48,666.6,874,616.11c87.19-87.19,157.61-200,209.33-335.19a1298.67,1298.67,0,0,0,63.49-227.18,1294.94,1294.94,0,0,0-227.1,63.42c-135.21,51.7-248,122.16-335.25,209.41-51.7,51.7-95.77,109.52-134.73,176.78A54.24,54.24,0,0,1,396.88,530l-170-19.3L77,619.25l225.48,92a54.11,54.11,0,0,1,24,81L275.66,865.3l59.49,59.49,71.92-50.32a54.07,54.07,0,0,1,46.3-7.58Z"/>
    <path d="M88.26,987.28A88,88,0,0,1,212.7,1111.72C178.33,1146.08,0,1200,0,1200S53.89,1021.64,88.26,987.28Z"/>
    <path d="M768,521.65c-24.15,0-47.35-9.38-63.66-25.74a90,90,0,1,1,127.3,0C815.35,512.27,792.15,521.65,768,521.65ZM768,378a54.2,54.2,0,0,0-38.17,92.48h0c9.6,9.63,23.5,15.15,38.16,15.15s28.56-5.52,38.16-15.15A54.17,54.17,0,0,0,768,378Z"/>
  </g>
  <g id="fs2">
    <path d="M840.49,816H360a24,24,0,0,1-24-24V408a24,24,0,0,1,24-24H840.49a24,24,0,0,1,24,24V792A24,24,0,0,1,840.49,816ZM384,768H816.49V432H384Z"/>
    <path d="M1080,336H936a24,24,0,0,1-24-24V168a24,24,0,0,1,48,0V288h120a24,24,0,0,1,0,48Z"/>
    <path d="M264,336H120a24,24,0,0,1,0-48H240V168.54a24,24,0,1,1,48,0V312A24,24,0,0,1,264,336Z"/>
    <path d="M264,1056a24,24,0,0,1-24-24V912H120a24,24,0,0,1,0-48H264a24,24,0,0,1,24,24v144A24,24,0,0,1,264,1056Z"/>
    <path d="M936,1056a24,24,0,0,1-24-24V887.76a24,24,0,0,1,24-24h144a24,24,0,0,1,0,48H960V1032A24,24,0,0,1,936,1056Z"/>
  </g>
  <g id="fs1">
    <path d="M936.5,912H264a24,24,0,0,1-24-24V312a24,24,0,0,1,24-24H936.5a24,24,0,0,1,24,24V888A24,24,0,0,1,936.5,912ZM288,864H912.5V336H288Z"/>
    <path d="M1080,336a24,24,0,0,1-24-24V192H936a24,24,0,1,1,0-48h144a24,24,0,0,1,24,24V312A24,24,0,0,1,1080,336Z"/>
    <path d="M120,336.31a24,24,0,0,1-24-24V168.84a24,24,0,0,1,24-24H264a24,24,0,0,1,0,48H144V312.31A24,24,0,0,1,120,336.31Z"/>
    <path d="M264,1056H120a24,24,0,0,1-24-24V888a24,24,0,0,1,48,0v120H264a24,24,0,1,1,0,48Z"/>
    <path d="M1080,1056.24H936a24,24,0,1,1,0-48h120V888a24,24,0,0,1,48,0v144.24A24,24,0,0,1,1080,1056.24Z"/>
  </g>
  <g id="gear">
    <g>
      <path d="M1137.37,518.29l-130.22-55.47L988,415.14l56-136.08a24,24,0,0,0-5.27-26.16l-86.27-85.75a24,24,0,0,0-26-5.21L789.41,217.67,741,198.41,678.61,62.05a24,24,0,0,0-21.83-14H537.33A24,24,0,0,0,515.14,62.9L459.29,198.61l-47.94,19.06L274.28,161.94a24,24,0,0,0-26.63,5.9L168,253.59a24,24,0,0,0-4.61,25.47l56,136.08-19.3,48-137.21,62A24,24,0,0,0,48.79,547V665.69a24,24,0,0,0,15,22.23l136.57,55.53,19.1,47.46L163.41,927a24,24,0,0,0,5.27,26.16l79.64,79.15a24,24,0,0,0,26,5.21l137.06-55.73,48.44,19.26,62.36,136.36a24,24,0,0,0,21.83,14H663.42a24,24,0,0,0,22.19-14.87l55.85-135.71,47.94-19.06,137.06,55.73a24,24,0,0,0,26-5.21l79.64-79.15a24,24,0,0,0,5.27-26.16l-56-136.08,19.3-48,137.21-62A24,24,0,0,0,1152,659.1V540.37A24,24,0,0,0,1137.37,518.29ZM1104,643.6,972.08,703.19A24,24,0,0,0,959.7,716.1l-26.54,66a24,24,0,0,0,.07,18.09l53.62,130.28-57,56.65-131.3-53.39a24,24,0,0,0-17.91-.07L714.28,960A24,24,0,0,0,701,973.18l-53.61,130.25h-88l-60-131.1a24,24,0,0,0-13-12.32l-66.36-26.38a24,24,0,0,0-17.91.07l-131.3,53.39-57-56.65,53.62-130.28a24,24,0,0,0,.07-18.09l-26.55-66a24,24,0,0,0-13.22-13.27l-131-53.28V562.45l131.88-59.58A24,24,0,0,0,241.05,490l26.55-66a24,24,0,0,0-.07-18.09L213.65,275l57.9-62.35L402.2,265.77a24,24,0,0,0,17.91.07l66.36-26.38a24,24,0,0,0,13.33-13.17L553.41,96h88l60,131.1a24,24,0,0,0,13,12.32l66.36,26.38a24,24,0,0,0,17.91-.07l131.3-53.39,63.63,63.25L939.86,405.9a24,24,0,0,0-.07,18.09l26.54,66a24,24,0,0,0,12.86,13.12L1104,556.23Z"/>
      <path d="M751.74,448.18a221.41,221.41,0,0,0-68.56-46.81,207,207,0,0,0-166.35,0A224.06,224.06,0,0,0,401.45,516.74a207,207,0,0,0,0,166.35A224.07,224.07,0,0,0,516.82,798.47a207,207,0,0,0,166.35,0A224.07,224.07,0,0,0,798.55,683.09a207,207,0,0,0,0-166.35A221.41,221.41,0,0,0,751.74,448.18ZM717.8,717.71c-31.9,31.9-74.84,50.2-117.8,50.2s-85.9-18.3-117.8-50.2S432,642.88,432,599.92s18.3-85.9,50.2-117.8S557,431.92,600,431.92s85.9,18.3,117.8,50.2S768,557,768,599.92,749.7,685.81,717.8,717.71Z"/>
    </g>
  </g>
  <g id="edit">
    <g>
      <path d="M753.09,311.06a24,24,0,0,0-33.94,0L277.91,752.3l-.18.2q-.66.68-1.27,1.41l-.28.33c-.42.52-.81,1.06-1.19,1.62l-.36.56q-.42.65-.79,1.33c-.09.17-.19.33-.28.5-.29.56-.55,1.13-.79,1.71-.1.23-.19.47-.28.7q-.26.68-.48,1.38c-.06.18-.12.37-.18.55l0,.06L216.94,953.28a24,24,0,0,0,29.7,29.7L437.29,928.1l.06,0,.55-.18q.7-.22,1.37-.48l.71-.28c.58-.24,1.15-.5,1.7-.79l.5-.28q.68-.37,1.33-.78l.56-.36c.55-.37,1.09-.77,1.61-1.19l.33-.28q.73-.61,1.41-1.27l.19-.18L888.85,480.77a24,24,0,0,0,0-33.94ZM306.69,815l78.21,78.21L275.07,924.84Z"/>
      <path d="M1054.38,261.52c-5-29.13-26.38-50.49-45.24-69.34l-1.41-1.41c-18.85-18.85-40.21-40.21-69.34-45.23-31.27-5.4-62.7,9-99,45.23l-.63.65-48,51.76a24,24,0,0,0,.63,33.29l132,132a24,24,0,0,0,33.29.63l51.76-48,.65-.63C1045.4,324.22,1059.77,292.78,1054.38,261.52Zm-78.86,64.69-34.48,32-99.32-99.32,32-34.48c23.44-23.37,42.45-34,56.54-31.56,13.08,2.25,26.87,15.19,43.56,31.88l1.41,1.41c16.68,16.68,29.62,30.48,31.87,43.55C1009.5,283.76,998.89,302.78,975.52,326.22Z"/>
    </g>
  </g>
  <g id="cards">
    <path d="M983.43,1092a103.8,103.8,0,0,1-18-1.58,24,24,0,0,1-4.94-1.43l-173-33.42a24,24,0,1,1,9.1-47.13l179.29,34.63a24.16,24.16,0,0,1,2.8.72,55.65,55.65,0,0,0,59.47-45.73l113-641a55.64,55.64,0,0,0-44.8-64.34l-113.88-17a24,24,0,1,1,7.07-47.48l114.23,17,.63.1a103.7,103.7,0,0,1,84,120l-113,641A103.76,103.76,0,0,1,983.43,1092Z"/>
    <path d="M211.83,1092a94.89,94.89,0,0,1-93.25-78.29L1.45,349.42A94.84,94.84,0,0,1,78.29,239.67l427.94-75.46A94.84,94.84,0,0,1,616,241.06L733.1,905.35a94.84,94.84,0,0,1-76.84,109.74l-427.94,75.46A95,95,0,0,1,211.83,1092ZM522.7,210.77a46.78,46.78,0,0,0-8.14.71L86.63,286.95a46.78,46.78,0,0,0-37.91,54.14l117.13,664.29A46.78,46.78,0,0,0,220,1043.28l427.94-75.46h0a46.78,46.78,0,0,0,37.91-54.14L568.7,249.4A46.81,46.81,0,0,0,522.7,210.77Z"/>
    <path d="M817.27,888a24,24,0,0,1,0-48A46.78,46.78,0,0,0,864,793.27V118.73A46.78,46.78,0,0,0,817.27,72H382.73A46.78,46.78,0,0,0,336,118.73a24,24,0,0,1-48,0A94.84,94.84,0,0,1,382.73,24H817.27A94.84,94.84,0,0,1,912,118.73V793.27A94.84,94.84,0,0,1,817.27,888Z"/>
  </g>
  <g id="cardsbk">
    <g>
      <path d="M1077.74,245.39l-89.57-15.79a24,24,0,1,0-8.33,47.27l89.57,15.79A55.64,55.64,0,0,1,1114.48,357l-113,641A55.66,55.66,0,0,1,942,1043.79a24,24,0,0,0-3.19-.79l-213.08-37.57a24,24,0,0,0-8.33,47.27l206.9,36.48a24.1,24.1,0,0,0,4.45,1.23,103.51,103.51,0,0,0,120-84l113-641A103.7,103.7,0,0,0,1077.74,245.39Z"/>
      <path d="M473.62,1005.43,260.54,1043a24,24,0,0,0-3.19.79,55.68,55.68,0,0,1-59.47-45.73l-113-641a55.64,55.64,0,0,1,45.08-64.39l90.23-15.91a24,24,0,0,0-8.33-47.27l-90.23,15.91a103.7,103.7,0,0,0-84,120l113,641a103.51,103.51,0,0,0,120,84,24.09,24.09,0,0,0,4.45-1.23L482,1052.7a24,24,0,0,0-8.33-47.27Z"/>
      <path d="M382.73,912H817.27A94.84,94.84,0,0,0,912,817.27V142.73A94.84,94.84,0,0,0,817.27,48H382.73A94.84,94.84,0,0,0,288,142.73V817.27A94.84,94.84,0,0,0,382.73,912ZM336,142.73A46.78,46.78,0,0,1,382.73,96H817.27A46.78,46.78,0,0,1,864,142.73V817.27A46.78,46.78,0,0,1,817.27,864H382.73A46.78,46.78,0,0,1,336,817.27Z"/>
    </g>
  </g>
  <g id="lampMini">
    <g>
      <rect x="480" y="864" width="240" height="48" rx="24" ry="24"/>
      <path d="M504,957.28A74.72,74.72,0,0,0,578.72,1032h42.55A74.72,74.72,0,0,0,696,957.28H504Z"/>
      <path d="M786.86,221.51A262.29,262.29,0,0,0,600.56,144H600c-70.06,0-135.95,26.95-185.58,75.91S336.8,334.75,336,405A261.54,261.54,0,0,0,389.2,566.93c6.62,8.76,12.84,16.85,18.85,24.68,23.68,30.79,42.38,55.11,54.28,81C474.55,699.14,480,728.57,480,768a24,24,0,1,0,48,0c0-99.14-30.83-139.23-81.9-205.65-6-7.74-12.11-15.75-18.6-24.34A215.79,215.79,0,0,1,600,192h.47A216,216,0,0,1,771.85,538.86c-6.79,8.9-13.2,17.13-19.4,25.09-25,32.16-44.83,57.56-58.75,87.59-15,32.35-21.7,67.22-21.7,113.06a24,24,0,0,0,48,0c0-80.86,22-109.15,70.32-171.15,6.27-8.05,12.76-16.38,19.69-25.47a264,264,0,0,0-23.15-346.47Z"/>
    </g>
  </g>
  <g id="lampMiniFull">
    <g>
      <path d="M696,864H504a24,24,0,0,0-24,24h0a24,24,0,0,0,24,24H696a24,24,0,0,0,24-24h0A24,24,0,0,0,696,864Z"/>
      <path d="M504,957.28A74.72,74.72,0,0,0,578.72,1032h42.55A74.72,74.72,0,0,0,696,957.28H504Z"/>
      <path d="M786.86,221.51A262.29,262.29,0,0,0,600.56,144H600c-70.06,0-135.95,26.95-185.58,75.91S336.8,334.75,336,405A261.54,261.54,0,0,0,389.2,566.93c6.62,8.76,12.84,16.85,18.85,24.68,23.68,30.79,42.38,55.11,54.28,81C474.55,699.14,480,728.57,480,768a24,24,0,0,0,24,24h.42l192-3.4a24,24,0,0,0,23.58-24c0-80.86,22-109.15,70.32-171.16,6.27-8.05,12.76-16.38,19.69-25.47a264,264,0,0,0-23.15-346.47Z"/>
    </g>
  </g>
  <g id="lamp">
    <g>
      <rect x="444" y="863.92" width="312" height="48" rx="23.54" ry="23.54"/>
      <rect x="444" y="959.92" width="312" height="48" rx="23.54" ry="23.54"/>
      <path d="M716.51,1055.92H483.42a3.49,3.49,0,0,0-3.49,3.49h0a68.51,68.51,0,0,0,68.51,68.51H651.49A68.51,68.51,0,0,0,720,1059.41h0A3.49,3.49,0,0,0,716.51,1055.92Z"/>
      <path d="M834.77,97.57A330.46,330.46,0,0,0,600.05-.08h-.72C511.06-.08,428,33.86,365.51,95.55c-62.71,61.86-97.79,144.69-98.77,233.22a331.25,331.25,0,0,0,67,204c40.43,53.53,63.54,87.25,77.66,123S431.34,732,431.34,795.34a24,24,0,0,0,48,0c0-137.83-26.21-184.13-107.29-291.5A281.91,281.91,0,0,1,314.74,329.3c.84-75.79,30.84-146.67,84.48-199.58S523.76,47.92,599.33,47.92H600A284.62,284.62,0,0,1,825.78,505c-41.42,54.29-67,91.7-83.41,133.82-16.36,42-23,87.31-23,156.55a24,24,0,0,0,48,0c0-121.42,19.55-160.27,96.6-261.25A332.63,332.63,0,0,0,834.77,97.57Z"/>
    </g>
  </g>
  <g id="citacao">
    <g>
      <path d="M432,529.69h64.4c0,22.51-5.44,40.38-16.37,56.58s-26.92,28.14-48,35.89V683.4a248.17,248.17,0,0,0,51.2-22.17A175.54,175.54,0,0,0,524.94,628a152,152,0,0,0,28.5-44.87A141.21,141.21,0,0,0,564,528.21V385.69H432Z"/>
      <path d="M636,529.69h64.4c0,22.51-5.44,40.38-16.37,56.58s-26.92,28.14-48,35.89V683.4a248.17,248.17,0,0,0,51.2-22.17A175.54,175.54,0,0,0,728.87,628a152,152,0,0,0,28.5-44.87,141.21,141.21,0,0,0,10.56-54.89V385.69H636Z"/>
      <path d="M1107.44,353.06c-28.23-50.31-68.48-95.38-119.64-133.94-50.66-38.19-109.53-68.13-175-89C745.36,108.6,673.76,97.69,600,97.69S454.64,108.6,387.19,130.11c-65.46,20.87-124.33,50.82-175,89C161,257.68,120.79,302.75,92.56,353.06,63,405.76,48,461.84,48,519.74c0,48,10.44,95.18,31,140.08,19.72,43,48.34,83.11,85.06,119.18,36,35.34,78.86,66,127.44,91a633.78,633.78,0,0,0,140.48,52v204.15A24,24,0,0,0,472,1144L707.6,933.78c258-38.83,444.4-212.05,444.4-414C1152,461.84,1137,405.76,1107.44,353.06Zm-33.82,294.6c-19.7,40-48.36,77-85.17,110.08C913.28,825.2,808.59,871.22,693.68,887.3A24,24,0,0,0,681,893.16L480,1072.51V902.8a24,24,0,0,0-19-23.47c-52.64-11.22-102.27-28.73-147.51-52-44.29-22.81-83.24-50.58-115.78-82.54s-57.79-67.26-75.06-104.94C105,601.23,96,560.84,96,519.74c0-206.25,226.09-374,504-374s504,167.8,504,374C1104,563.68,1093.78,606.72,1073.62,647.65Z"/>
    </g>
  </g>
  <g id="balanca">
    <g>
      <path d="M672,119.92a72,72,0,1,0-72,72A72.08,72.08,0,0,0,672,119.92Zm-72,24a24,24,0,1,1,24-24A24,24,0,0,1,600,143.92Z"/>
      <path d="M1080,599.92v0q0-.59,0-1.19v0q0-.59-.09-1.17v-.05c0-.35-.08-.7-.13-1l0-.18c0-.28-.1-.56-.15-.83s0-.26-.07-.39-.09-.38-.13-.56-.1-.43-.16-.65l-.09-.3c-.08-.3-.17-.6-.26-.89l0-.1a23.83,23.83,0,0,0-1.35-3.3v0L959.78,353.82c-3.21-46.24-43-87.87-112.74-117.78-66.38-28.45-154.12-44.12-247-44.12S419.34,207.58,353,236c-69.79,29.91-109.53,71.54-112.74,117.78L122.53,589.18v0q-.27.53-.51,1.08h0q-.24.55-.45,1.1v0c-.13.34-.24.68-.36,1l-.05.15c-.09.28-.17.56-.25.84l-.1.36c-.05.19-.1.39-.14.59s-.1.41-.14.62,0,.22-.06.33c-.06.3-.11.59-.16.89l0,.13q-.08.55-.14,1.1h0a23.85,23.85,0,0,0-.12,2.43v0c0,.09,0,.17,0,.26s0,.38,0,.57c.45,79,64.86,143.17,144,143.17s143.54-64.15,144-143.17c0-.19,0-.38,0-.57s0-.17,0-.26v0a23.85,23.85,0,0,0-.12-2.43h0q-.06-.55-.14-1.1l0-.13c0-.3-.1-.59-.16-.89,0-.11,0-.22-.06-.33s-.09-.41-.14-.62-.09-.39-.14-.59l-.1-.36c-.08-.28-.16-.56-.25-.84l-.05-.15c-.11-.34-.23-.68-.36-1v0q-.21-.56-.45-1.1h0q-.24-.55-.51-1.08v0L288.33,354.91c1.47-11.3,7.89-22.78,19.16-34.19C322,306,344.27,292,371.87,280.15c54.91-23.53,126.67-37.48,204.13-39.87V912.4c-71.61,2.83-138.48,18.28-190.38,44.23-63,31.48-97.62,75.26-97.62,123.29a24,24,0,0,0,24,24H888a24,24,0,0,0,24-24c0-48-34.67-91.81-97.62-123.29-51.9-26-118.77-41.4-190.38-44.23V240.29c77.47,2.39,149.22,16.33,204.13,39.87C855.73,292,878,306,892.51,320.72c11.26,11.41,17.69,22.89,19.16,34.19L794.53,589.18v0a23.83,23.83,0,0,0-1.35,3.3l0,.1c-.09.29-.18.59-.26.89l-.09.3c-.06.21-.11.43-.16.65s-.09.38-.13.56,0,.26-.07.39-.11.56-.15.83l0,.18c-.05.35-.1.7-.13,1v.05q-.06.59-.09,1.17v0q0,.59,0,1.18v0c0,.13,0,.26,0,.39s0,.29,0,.43c.44,79,64.86,143.18,144,143.18s143.55-64.15,144-143.18c0-.14,0-.29,0-.43S1080,600,1080,599.92ZM264,413.58l81.17,162.33H182.83Zm0,282.33a96.17,96.17,0,0,1-93-72H357A96.17,96.17,0,0,1,264,695.92Zm594,360H342c10.08-20.39,32.61-40.11,65.11-56.36C458.21,974,526.73,959.92,600,959.92S741.79,974,792.91,999.56C825.41,1015.81,847.94,1035.53,858,1055.92Zm78-642.33,81.17,162.33H854.83Zm0,282.33a96.17,96.17,0,0,1-93-72H1029A96.17,96.17,0,0,1,936,695.92Z"/>
    </g>
  </g>
  <g id="documentos">
    <g>
      <path d="M960,310.71c0-.34,0-.67-.07-1,0-.05,0-.11,0-.17A23.85,23.85,0,0,0,956,298.65l0-.06c-.19-.28-.38-.55-.58-.82l-.11-.15c-.18-.24-.36-.47-.55-.71l-.18-.23-.54-.63-.23-.26c-.22-.24-.45-.48-.68-.72l-.12-.13-144-144-.13-.12c-.24-.23-.47-.46-.72-.68l-.26-.23-.63-.54-.23-.18-.71-.55-.15-.11-.82-.58-.06,0A23.85,23.85,0,0,0,794.38,144h-.17l-1-.07q-.6,0-1.2,0H408a24,24,0,0,0-24,24v720a24,24,0,0,0,24,24H936a24,24,0,0,0,24-24v-576Q960,311.31,960,310.71ZM816,225.86l62.06,62.06H816ZM432,863.92v-672H768v120a24,24,0,0,0,24,24H912v528Z"/>
      <path d="M840,959.92H336v-648a24,24,0,0,0-48,0v672a24,24,0,0,0,24,24H840a24,24,0,0,0,0-48Z"/>
      <path d="M744,1055.92H240v-648a24,24,0,0,0-48,0v672a24,24,0,0,0,24,24H744a24,24,0,0,0,0-48Z"/>
      <path d="M528,335.92H672a24,24,0,0,0,0-48H528a24,24,0,0,0,0,48Z"/>
      <path d="M816,431.92H528a24,24,0,0,0,0,48H816a24,24,0,0,0,0-48Z"/>
      <path d="M816,527.92H528a24,24,0,0,0,0,48H816a24,24,0,0,0,0-48Z"/>
      <path d="M816,623.92H528a24,24,0,0,0,0,48H816a24,24,0,0,0,0-48Z"/>
      <path d="M720,719.92H528a24,24,0,0,0,0,48H720a24,24,0,0,0,0-48Z"/>
    </g>
  </g>
  <g id="download">
    <g>
      <path d="M984,767.92a24,24,0,0,0-24,24v168H240v-168a24,24,0,0,0-48,0v192a24,24,0,0,0,24,24H984a24,24,0,0,0,24-24v-192A24,24,0,0,0,984,767.92Z"/>
      <path d="M577,808.65a24,24,0,0,0,16.88,7.26h.33a24,24,0,0,0,16.74-6.8l221.84-216a24,24,0,1,0-33.48-34.39L624,729.36V215.92a24,24,0,0,0-48,0V738.84L401.2,559.18a24,24,0,1,0-34.4,33.47Z"/>
    </g>
  </g>
  <g id="documento">
    <g>
      <path d="M912,358.71c0-.34,0-.67-.07-1,0-.05,0-.11,0-.17A23.85,23.85,0,0,0,908,346.65l0-.06c-.19-.28-.38-.55-.58-.82l-.11-.15c-.18-.24-.36-.47-.55-.71l-.18-.23-.54-.63-.23-.26c-.22-.24-.45-.48-.68-.72l-.12-.13-144-144-.13-.12c-.24-.23-.47-.46-.72-.68l-.26-.23-.63-.54-.23-.18-.71-.55-.15-.11-.82-.58-.06,0A23.85,23.85,0,0,0,746.38,192h-.17l-1-.07q-.6,0-1.2,0H360a24,24,0,0,0-24,24v720a24,24,0,0,0,24,24H888a24,24,0,0,0,24-24v-576Q912,359.31,912,358.71ZM768,273.86l62.06,62.06H768ZM384,911.92v-672H720v120a24,24,0,0,0,24,24H864v528Z"/>
      <path d="M480,383.92H624a24,24,0,0,0,0-48H480a24,24,0,0,0,0,48Z"/>
      <path d="M768,479.92H480a24,24,0,1,0,0,48H768a24,24,0,0,0,0-48Z"/>
      <path d="M768,575.92H480a24,24,0,0,0,0,48H768a24,24,0,0,0,0-48Z"/>
      <path d="M768,671.92H480a24,24,0,0,0,0,48H768a24,24,0,0,0,0-48Z"/>
      <path d="M672,767.92H480a24,24,0,0,0,0,48H672a24,24,0,0,0,0-48Z"/>
    </g>
  </g>
  <g id="pasta">
    <g>
      <path d="M1032,911.92a24,24,0,0,0,24-24v-480a24,24,0,0,0-48,0v480A24,24,0,0,0,1032,911.92Z"/>
      <path d="M1128,335.92a24,24,0,0,0-24,24V889.06a70.93,70.93,0,0,1-70.85,70.86h-.82A72.4,72.4,0,0,1,960,887.59V359.92a24,24,0,0,0-24-24H432V291.54a51.68,51.68,0,0,0-51.62-51.62H193.32A49.38,49.38,0,0,0,144,289.24v46.68H120a24,24,0,0,0-24,24v525.9a122.24,122.24,0,0,0,122.1,122.1h815A119,119,0,0,0,1152,889.06V359.92A24,24,0,0,0,1128,335.92Zm-909.9,624a74.18,74.18,0,0,1-74.1-74.1V383.92h24a24,24,0,0,0,24-24V289.24a1.32,1.32,0,0,1,1.32-1.32H380.38a3.63,3.63,0,0,1,3.62,3.62v68.38a24,24,0,0,0,24,24H912V887.59a119.7,119.7,0,0,0,24.22,72.32Z"/>
    </g>
  </g>
  <g id="reus">
    <g>
      <path d="M683.17,746.42a145.15,145.15,0,0,0,13.73-14c24.74-28.87,38.37-67,38.37-107.41s-13.63-78.55-38.37-107.42c-25.65-29.92-60.06-46.4-96.9-46.4s-71.25,16.48-96.9,46.4c-24.74,28.87-38.37,67-38.37,107.42s13.63,78.55,38.37,107.41a145.15,145.15,0,0,0,13.73,14A228.45,228.45,0,0,0,372,958.83v25.09a120.54,120.54,0,0,0,120.41,120.41H707.59A120.54,120.54,0,0,0,828,983.92V958.83A228.45,228.45,0,0,0,683.17,746.42ZM512.73,625c0-58.35,39.15-105.82,87.27-105.82S687.27,566.66,687.27,625,648.12,730.83,600,730.83,512.73,683.36,512.73,625ZM780,983.92a72.49,72.49,0,0,1-72.41,72.41H492.41A72.49,72.49,0,0,1,420,983.92V958.83c0-99.25,80.75-180,180-180s180,80.75,180,180Z"/>
      <path d="M1153.13,839.76c.23-4.12.34-8.16.34-12A216.44,216.44,0,0,0,1016,626.38q4-4,7.72-8.4c21.77-25.85,33.76-60,33.76-96.07s-12-70.22-33.76-96.07c-22.77-27-53.4-41.93-86.24-41.93S874,398.81,851.23,425.85c-21.77,25.85-33.76,60-33.76,96.07s12,70.22,33.76,96.07q3.76,4.47,7.81,8.48a216.08,216.08,0,0,0-85.22,60.28,24,24,0,0,0,36.35,31.34A168,168,0,0,1,932.62,659.8c1.61.07,3.23.12,4.85.12s3.22,0,4.83-.12c90.41,2.57,163.17,76.91,163.17,167.93,0,3.45-.12,7.09-.36,10.83l-.12,1.88.18,1.88c.15,1.54.24,3.09.28,4.62a66.81,66.81,0,0,1-66.71,65H888a24,24,0,0,0,0,48h150.73a114.87,114.87,0,0,0,114.69-111.27h.05v-3.46h-.05C1153.36,843.38,1153.27,841.57,1153.13,839.76ZM865.47,521.92c0-49.63,32.3-90,72-90s72,40.37,72,90c0,47.94-30.14,87.24-68,89.86-1.34,0-2.68,0-4,0s-2.65,0-4,.05C895.64,609.19,865.47,569.88,865.47,521.92Z"/>
      <path d="M312,911.92H162.74a66.82,66.82,0,0,1-66.71-65c0-1.53.13-3.07.28-4.62l.18-1.88-.12-1.88c-.24-3.8-.36-7.34-.36-10.83,0-91,72.76-165.36,163.17-167.93,1.6.07,3.21.12,4.83.12s3.24,0,4.85-.12a168,168,0,0,1,122.45,58.29,24,24,0,0,0,36.35-31.34,216.08,216.08,0,0,0-85.22-60.28q4-4,7.81-8.48C372,592.13,384,558,384,521.92s-12-70.22-33.76-96.07c-22.77-27-53.4-41.93-86.24-41.93s-63.47,14.89-86.24,41.93C156,451.7,144,485.82,144,521.92s12,70.22,33.76,96.07q3.72,4.42,7.72,8.4A216.44,216.44,0,0,0,48,827.72c0,3.88.12,7.92.35,12-.14,1.81-.24,3.62-.29,5.42H48v3.46h.05A114.87,114.87,0,0,0,162.74,959.92H312a24,24,0,0,0,0-48Zm-120-390c0-49.63,32.3-90,72-90s72,40.37,72,90c0,48-30.17,87.28-68,89.86-1.32,0-2.64-.05-4-.05s-2.69,0-4,0C222.14,609.15,192,569.85,192,521.92Z"/>
      <path d="M456,456a23.93,23.93,0,0,0,17.1-7.16c33.69-34.2,79.33-53,128.5-53s94.79,18.83,128.49,53a24,24,0,0,0,34.19-33.69,223.72,223.72,0,0,0-72.73-49.26,229.31,229.31,0,0,0-23.8-8.53C692.28,335.35,708,301.66,708,264c0-66.19-48.45-120-108-120S492,197.77,492,264c0,38.11,16.06,72.12,41.05,94.13q-10.86,3.36-21.41,7.81a223.66,223.66,0,0,0-72.74,49.26A24,24,0,0,0,456,456ZM600,191.92c33.08,0,60,32.32,60,72s-26.92,72-60,72-60-32.32-60-72S566.92,191.92,600,191.92Z"/>
    </g>
  </g>
  <g id="fbook">
    <path d="M951.31,143.4H248.76A105.28,105.28,0,0,0,143.48,248.67V951.22A105.28,105.28,0,0,0,248.76,1056.5h382v-357H517.08V567.9H630.75V470.82c0-112.66,68.81-174,169.31-174,48.14,0,89.52,3.58,101.58,5.19V419.74l-69.71,0c-54.66,0-65.24,26-65.24,64.09v84H897.05l-17,131.64H766.69v357H951.31a105.28,105.28,0,0,0,105.28-105.28V248.67A105.28,105.28,0,0,0,951.31,143.4Z"/>
  </g>
  <g id="twitter">
    <path d="M1104.42,285.88A408.23,408.23,0,0,1,987,318.08a205.22,205.22,0,0,0,89.93-113.13A409.85,409.85,0,0,1,947,254.58,204.31,204.31,0,0,0,797.76,190c-113,0-204.55,91.59-204.55,204.5a204.21,204.21,0,0,0,5.31,46.63c-170-8.54-320.69-89.93-421.55-213.68a204.67,204.67,0,0,0,63.31,273,203,203,0,0,1-92.63-25.58c0,.85,0,1.71,0,2.61,0,99.06,70.51,181.75,164.08,200.5a204.2,204.2,0,0,1-92.36,3.5,204.75,204.75,0,0,0,191.06,142,410.39,410.39,0,0,1-254,87.55,416.33,416.33,0,0,1-48.79-2.83,579,579,0,0,0,313.5,91.86c376.18,0,581.9-311.65,581.9-581.9,0-8.86-.18-17.67-.58-26.44A416.11,416.11,0,0,0,1104.42,285.88Z"/>
  </g>
  <g id="gplus">
    <path d="M1104,556.17H999.63V451.79h-83.5V556.17H811.75v83.5H916.13V744h83.5V639.67H1104M436,535.29V665.55H618C604,744,536,801.24,436,801.24c-110.22,0-199.77-93.31-199.77-203.53S325.78,394.38,436,394.38c49.68,0,94.15,17.12,129.22,50.52v.21L659.36,351c-57.82-53.86-133.18-87-223.36-87-184.54,0-334,149.46-334,334s149.46,334,334,334c192.88,0,320.64-135.69,320.64-326.48a381,381,0,0,0-6.47-70.14Z"/>
  </g>
  <g id="hamburguer">
    <g>
      <path d="M996,528.42H209.87a71.5,71.5,0,1,0,0,143H996a71.5,71.5,0,0,0,0-143Z"/>
      <path d="M209.87,383.42H996a71.5,71.5,0,1,0,0-143H209.87a71.5,71.5,0,0,0,0,143Z"/>
      <path d="M996,816.42H209.87a71.5,71.5,0,0,0,0,143H996a71.5,71.5,0,0,0,0-143Z"/>
    </g>
  </g>
  <g id="settings">
    <g>
      <path d="M984,575.92H720v-48a48,48,0,0,0-48-48h0a48,48,0,0,0-48,48v48H216a24,24,0,0,0,0,48H624v48a48,48,0,0,0,48,48h0a48,48,0,0,0,48-48v-48H984a24,24,0,0,0,0-48Z"/>
      <path d="M216,239.92H336v48a48,48,0,0,0,48,48h0a48,48,0,0,0,48-48v-48H984a24,24,0,0,0,0-48H432v-48a48,48,0,0,0-48-48h0a48,48,0,0,0-48,48v48H216a24,24,0,0,0,0,48Z"/>
      <path d="M984,959.92H528v-48a48,48,0,0,0-48-48h0a48,48,0,0,0-48,48v48H216a24,24,0,0,0,0,48H432v48a48,48,0,0,0,48,48h0a48,48,0,0,0,48-48v-48H984a24,24,0,0,0,0-48Z"/>
    </g>
  </g>
  <g id="menu">
    <g>
      <rect x="480" y="95.92" width="240" height="240"/>
      <rect x="480" y="479.92" width="240" height="240"/>
      <rect x="480" y="863.92" width="240" height="240"/>
    </g>
  </g>
  <g id="layers">
    <g>
      <rect x="378.48" y="186.39" width="441.98" height="441.98" transform="translate(-112.48 543.21) rotate(-45)"/>
      <polygon points="928.97 580.89 895.03 546.95 599.47 842.5 303.91 546.95 269.97 580.89 599.47 910.39 928.97 580.89"/>
      <polygon points="599.47 1033.97 303.91 738.41 269.97 772.36 599.47 1101.86 928.97 772.36 895.03 738.41 599.47 1033.97"/>
    </g>
  </g>
  <g id="leftMenu">
    <path d="M689.7,847.7,464.44,601.83,689.82,352a24,24,0,0,0-35.64-32.15L399.56,602.08l254.74,278A24,24,0,1,0,689.7,847.7Z"/>
  </g>
  <g id="rightMenu">
    <path d="M497.82,319.84A24,24,0,0,0,462.18,352L687.56,601.83,462.3,847.7a24,24,0,1,0,35.39,32.43l254.74-278Z"/>
  </g>
</svg>
