<svg xmlns="http://www.w3.org/2000/svg" viewBox="0 0 720 720">
  <title>icons_wwflapig</title>
  <g id="popUp">
    <g>
      <path d="M648,48H216a24,24,0,0,0-24,24V504a24,24,0,0,0,24,24H648a24,24,0,0,0,24-24V72A24,24,0,0,0,648,48ZM624,480H240V96H624Z"/>
      <path d="M504,624H96V216a24,24,0,0,0-48,0V648a24,24,0,0,0,24,24H504a24,24,0,0,0,0-48Z"/>
      <path d="M336,408a23.93,23.93,0,0,0,17-7l127-127V360a24,24,0,0,0,48,0V216h0V192H360a24,24,0,0,0,0,48h86.06L319,367a24,24,0,0,0,17,41Z"/>
    </g>
  </g>
  <g id="up">
    <path d="M649.61,529.61a23.93,23.93,0,0,1-17-7L360,249.94,87.36,522.58a24,24,0,0,1-33.94-33.94L343,199A24,24,0,0,1,377,199L666.59,488.64a24,24,0,0,1-17,41Z"/>
  </g>
  <g id="down">
    <path d="M358.39,576a23.93,23.93,0,0,1-17-7L51.81,279.36a24,24,0,1,1,33.94-33.94L358.39,518.06,631,245.42A24,24,0,1,1,665,279.36L375.36,569A23.93,23.93,0,0,1,358.39,576Z"/>
  </g>
  <g id="left">
    <path d="M505.61,673.61a23.93,23.93,0,0,1-17-7L199,377A24,24,0,0,1,199,343L488.64,53.42a24,24,0,0,1,33.94,33.94L249.95,360,522.59,632.64a24,24,0,0,1-17,41Z"/>
  </g>
  <g id="start">
    <g>
      <path d="M296.33,358.39,569,85.75A24,24,0,0,0,535,51.81L245.42,341.42a24,24,0,0,0,0,33.94L535,665A24,24,0,0,0,569,631Z"/>
      <path d="M120,96a24,24,0,0,0-24,24V600a24,24,0,0,0,48,0V120A24,24,0,0,0,120,96Z"/>
    </g>
  </g>
  <g id="right">
    <path d="M214.39,673.61a24,24,0,0,1-17-41L470.06,360,197.42,87.36a24,24,0,1,1,33.94-33.94L521,343A24,24,0,0,1,521,377L231.36,666.58A23.93,23.93,0,0,1,214.39,673.61Z"/>
  </g>
  <g id="end">
    <g>
      <path d="M137,51.81A24,24,0,0,0,103,85.75L375.67,358.39,103,631A24,24,0,0,0,137,665L426.58,375.36a24,24,0,0,0,0-33.94Z"/>
      <path d="M552,96a24,24,0,0,0-24,24V600a24,24,0,0,0,48,0V120A24,24,0,0,0,552,96Z"/>
    </g>
  </g>
  <g id="cPlusFull">
    <path d="M360,0C161.18,0,0,161.18,0,360S161.18,720,360,720,720,558.82,720,360,558.83,0,360,0ZM528,390H390V528a30,30,0,0,1-60,0V390H192a30,30,0,0,1,0-60H330V192a30,30,0,0,1,60,0V330H528a30,30,0,0,1,0,60Z"/>
  </g>
  <g id="cCheckFull">
    <path d="M360,0C161.18,0,0,161.18,0,360S161.18,720,360,720,720,558.82,720,360,558.82,0,360,0ZM535.89,299.88l-216,192a48,48,0,0,1-65.83-1.93l-96-96a48,48,0,0,1,67.88-67.88l64,64L472.11,228.12a48,48,0,1,1,63.78,71.75Z"/>
  </g>
  <g id="cMinusFull">
    <path d="M360,72C200.95,72,72,200.94,72,360S200.95,648,360,648,648,519.06,648,360,519.06,72,360,72ZM495.77,384H224.24a24,24,0,1,1,0-48H495.77a24,24,0,1,1,0,48Z"/>
  </g>
  <g id="cXfull">
    <path d="M360,72C200.95,72,72,200.94,72,360S200.95,648,360,648,648,519.06,648,360,519.06,72,360,72ZM473,439A24,24,0,0,1,439,473l-79-79-79,79A24,24,0,1,1,247,439l79-79-79-79A24,24,0,1,1,281,247l79,79,79-79A24,24,0,0,1,473,281l-79,79Z"/>
  </g>
  <g id="cPlus">
    <g>
      <path d="M691.7,219.86A361.11,361.11,0,1,0,720,360,358.77,358.77,0,0,0,691.7,219.86ZM580.62,580.62A312,312,0,1,1,139.38,139.38,312,312,0,1,1,580.62,580.62Z"/>
      <path d="M528,336H384V192a24,24,0,0,0-48,0V336H192a24,24,0,0,0,0,48H336V528a24,24,0,0,0,48,0V384H528a24,24,0,0,0,0-48Z"/>
    </g>
  </g>
  <g id="cMinus">
    <path d="M360,672A312,312,0,0,1,139.39,139.38,312,312,0,1,1,580.62,580.62,310,310,0,0,1,360,672Zm0-576a264,264,0,1,0,186.68,77.32A262.27,262.27,0,0,0,360,96Z"/>
    <path d="M495.77,384H224.24a24,24,0,1,1,0-48H495.77a24,24,0,1,1,0,48Z"/>
  </g>
  <g id="cX">
    <path d="M360,672A312,312,0,0,1,139.39,139.38,312,312,0,1,1,580.62,580.62,310,310,0,0,1,360,672Zm0-576a264,264,0,1,0,186.68,77.32A262.27,262.27,0,0,0,360,96Z"/>
    <path d="M456,480a23.93,23.93,0,0,1-17-7L247,281A24,24,0,1,1,281,247L473,439a24,24,0,0,1-17,41Z"/>
    <path d="M264,480a24,24,0,0,1-17-41L439,247A24,24,0,0,1,473,281L281,473A23.93,23.93,0,0,1,264,480Z"/>
  </g>
  <g id="plus">
    <path d="M672,324H396V48a36,36,0,0,0-72,0V324H48a36,36,0,0,0,0,72H324V672a36,36,0,0,0,72,0V396H672a36,36,0,0,0,0-72Z"/>
  </g>
  <g id="minus">
    <path d="M696,336H24a24,24,0,0,0,0,48H696a24,24,0,0,0,0-48Z"/>
  </g>
  <g id="go">
    <path d="M600,96H168a24,24,0,0,0,0,48H542.06L105.44,580.62a24,24,0,0,0,33.94,33.94L576,177.94V552a24,24,0,0,0,48,0V120A24,24,0,0,0,600,96Z"/>
  </g>
  <g id="plusMini">
    <path d="M360,576a24,24,0,0,1-24-24V168a24,24,0,0,1,48,0V552A24,24,0,0,1,360,576Z"/>
    <path d="M552,384H168a24,24,0,0,1,0-48H552a24,24,0,0,1,0,48Z"/>
  </g>
  <g id="minusMini">
    <path d="M552,384H168a24,24,0,0,1,0-48H552a24,24,0,0,1,0,48Z"/>
  </g>
  <g id="xMini">
    <path d="M552,576a23.93,23.93,0,0,1-17-7L151,185A24,24,0,0,1,185,151L569,535a24,24,0,0,1-17,41Z"/>
    <path d="M168,576a24,24,0,0,1-17-41L535,151A24,24,0,1,1,569,185L185,569A23.93,23.93,0,0,1,168,576Z"/>
  </g>
  <g id="trashMini">
    <g>
      <path d="M120,192H600a24,24,0,0,0,0-48H480V108a60.29,60.29,0,0,0-60.22-60.22H300A60.29,60.29,0,0,0,239.78,108v36H120a24,24,0,0,0,0,48Zm167.78-84A12.24,12.24,0,0,1,300,95.78H419.78A12.24,12.24,0,0,1,432,108v36H287.78Z"/>
      <path d="M252,300V516a12,12,0,0,0,24,0V300a12,12,0,0,0-24,0Z"/>
      <path d="M444,300V516a12,12,0,0,0,24,0V300a12,12,0,0,0-24,0Z"/>
      <path d="M348,300V516a12,12,0,0,0,24,0V300a12,12,0,0,0-24,0Z"/>
      <path d="M600,240H552a24,24,0,0,0-24,24V530.92A93.19,93.19,0,0,1,434.92,624H285.35a93.19,93.19,0,0,1-93.08-93.08V264a24,24,0,0,0-24-24h-48a24,24,0,0,0,0,48h24V530.92c0,77.79,63.29,141.08,141.08,141.08H434.92C512.71,672,576,608.71,576,530.92V288h24a24,24,0,0,0,0-48Z"/>
    </g>
  </g>
  <g id="tag">
    <path d="M672.33,97h-500a47.67,47.67,0,0,0-41.85,24.84l-118,216.33a47.67,47.67,0,0,0,0,45.65l118,216.33A47.67,47.67,0,0,0,172.3,625h500A47.67,47.67,0,0,0,720,577.33V144.67A47.67,47.67,0,0,0,672.33,97ZM120,421a60,60,0,1,1,60-60A60,60,0,0,1,120,421Z"/>
  </g>
  <g id="trash">
    <g>
      <path d="M72,144.22H648a24,24,0,0,0,0-48H480v-36A60.29,60.29,0,0,0,419.78,0H300a60.29,60.29,0,0,0-60.22,60.22v36H72a24,24,0,0,0,0,48Zm215.78-84A12.24,12.24,0,0,1,300,48H419.78A12.24,12.24,0,0,1,432,60.22v36H287.78Z"/>
      <path d="M246,252V564a18,18,0,0,0,36,0V252a18,18,0,0,0-36,0Z"/>
      <path d="M438,252V564a18,18,0,0,0,36,0V252a18,18,0,0,0-36,0Z"/>
      <path d="M342,252V564a18,18,0,0,0,36,0V252a18,18,0,0,0-36,0Z"/>
      <path d="M648,192.22H600a24,24,0,0,0-24,24V564.28C576,623.68,521.1,672,453.62,672h-187c-67.47,0-122.37-48.32-122.37-107.72V216.22a24,24,0,0,0-24-24H72a24,24,0,0,0,0,48H96.27V564.28c0,42.08,18,81.49,50.82,111C179.15,704.11,221.6,720,266.64,720h187c45,0,87.49-15.89,119.55-44.74,32.77-29.49,50.82-68.9,50.82-111V240.22h24a24,24,0,0,0,0-48Z"/>
    </g>
  </g>
  <g id="starFull">
    <path d="M360.95,595.58a26.61,26.61,0,0,1,12.32,3l185.29,96.31a22.21,22.21,0,0,0,32.13-23.51l-35.33-203.6A26,26,0,0,1,563,444.62l149.4-144c13.31-12.83,6-35.35-12.26-38L493.41,233a26.46,26.46,0,0,1-19.95-14.31L380.82,33a22.21,22.21,0,0,0-39.75,0L248.4,218.66A26.43,26.43,0,0,1,228.49,233L21.8,262.67c-18.3,2.63-25.57,25.15-12.26,38l149.39,144a26,26,0,0,1,7.61,23.16l-35.33,203.6a22.21,22.21,0,0,0,32.13,23.51l185.29-96.31A26.61,26.61,0,0,1,360.95,595.58Z"/>
  </g>
  <g id="top">
    <path d="M344.38,5.78l-336,288a24,24,0,0,0,31.24,36.44L336,76.18V696a24,24,0,0,0,48,0V76.18l296.38,254a24,24,0,1,0,31.24-36.44l-336-288A24,24,0,0,0,344.38,5.78Z"/>
  </g>
  <g id="check">
    <path d="M612.87,209.27a48,48,0,0,0-67.6-6.15L290.95,415.06l-113-113a48,48,0,0,0-67.88,67.88l144,144a48,48,0,0,0,64.67,2.93l288-240A48,48,0,0,0,612.87,209.27Z"/>
  </g>
  <g id="lupahMini">
    <g>
      <path d="M409.71,70.29A240,240,0,1,0,70.29,409.71,240,240,0,1,0,409.71,70.29ZM240,432C134.13,432,48,345.87,48,240S134.13,48,240,48s192,86.13,192,192S345.87,432,240,432Z"/>
      <path d="M702.43,617.57l-180-180a60,60,0,0,0-84.85,84.85l180,180a60,60,0,0,0,84.85-84.85Z"/>
    </g>
  </g>
  <g id="eye">
    <g>
      <path d="M360,95.85C161.18,95.85,0,203,0,335.12S161.18,574.39,360,574.39,720,467.26,720,335.12,558.82,95.85,360,95.85ZM360,504A168,168,0,1,1,528,336,168,168,0,0,1,360,504Z"/>
      <circle cx="384" cy="288" r="48"/>
    </g>
  </g>
</svg>
